<svg xmlns="http://www.w3.org/2000/svg" xmlns:xlink="http://www.w3.org/1999/xlink" xmlns:svgjs="http://svgjs.com/svgjs" width="512" height="512" x="0" y="0" viewBox="0 0 512 512" style="enable-background:new 0 0 512 512" xml:space="preserve" class=""><g><g xmlns="http://www.w3.org/2000/svg"><path d="m497 233.486h-15.139v-218.454c.332-10.927-12.437-18.65-21.961-13.286l-109.31 57.255c-17.19-34.898-53.129-58.969-94.59-58.969-53.249 0-97.393 39.702-104.399 91.055l-112.894 53.476c-5.238 2.481-8.578 7.759-8.578 13.555v75.368h-15.129c-8.284 0-15 6.715-15 14.999v60.246c0 8.284 6.716 14.999 15 14.999h15.125v173.27c0 8.284 6.716 14.999 15 14.999h421.75c8.284 0 15-6.715 15-14.999v-173.27h15.125c8.284 0 15-6.715 15-14.999v-60.246c0-8.284-6.716-14.999-15-14.999zm-45.139 0h-30.234v-177.827l30.234-15.836zm-60.234-162.114v162.114h-30.252l-.034-146.251zm-135.627-41.342c41.562 0 75.375 33.811 75.375 75.37s-33.813 75.37-75.375 75.37c-42.862.126-77.516-36.297-75.281-79.089 1.946-39.838 34.966-71.651 75.281-71.651zm-195.872 137.58 92.135-43.643c3.098 17.355 10.46 33.251 20.96 46.565v2.708h-30.192c-8.284 0-15 6.715-15 14.999s6.716 14.999 15 14.999h30.192v30.248h-113.095zm143.096 28.961c15.529 9.023 33.559 14.197 52.776 14.197 29.514 0 56.227-12.201 75.375-31.817v54.533h-.066c-.003 0-.006 0-.01 0h-128.075zm-143.099 187.406h30.25v30.248h-30.25zm135.563 98.025v-98.025h45.312v98.025zm75.312 0v-98.025h45.312v98.025zm180.875-67.777h-30.25v-30.248h30.25zm0-60.246h-45.25c-8.284 0-15 6.715-15 14.999v60.246c0 8.284 6.716 14.999 15 14.999h45.25v37.779h-105.563v-113.024c0-8.284-6.716-14.999-15-14.999h-150.624c-8.284 0-15 6.715-15 14.999v113.024h-105.563v-37.779h45.25c8.284 0 15-6.715 15-14.999v-60.246c0-8.284-6.716-14.999-15-14.999h-45.25v-30.249h391.75zm30.125-60.247h-452v-30.248h452z" fill="#ffffff" data-original="#000000" style="" class=""></path><path d="m256 120.399h30.125c8.284 0 15-6.715 15-14.999s-6.716-14.999-15-14.999h-15.125v-15.124c0-8.284-6.716-14.999-15-14.999s-15 6.715-15 14.999v30.123c0 8.284 6.716 14.999 15 14.999z" fill="#ffffff" data-original="#000000" style="" class=""></path></g></g></svg>