<svg xmlns="http://www.w3.org/2000/svg" xmlns:xlink="http://www.w3.org/1999/xlink" xmlns:svgjs="http://svgjs.com/svgjs" width="512" height="512" x="0" y="0" viewBox="0 0 512 512" style="enable-background:new 0 0 512 512" xml:space="preserve" class=""><g><g xmlns="http://www.w3.org/2000/svg"><path d="m361.38 105.38c0-58.11-47.28-105.38-105.38-105.38s-105.38 47.27-105.38 105.38c0 58.1 47.28 105.37 105.38 105.37s105.38-47.27 105.38-105.37zm-75.26 15h-30.12c-8.28 0-15-6.72-15-15v-30.13c0-8.28 6.72-15 15-15s15 6.72 15 15v15.13h15.12c8.29 0 15 6.71 15 15 0 8.28-6.71 15-15 15z" fill="#ffffff" data-original="#000000" style="" class=""></path><path d="m60.118 406.56h45.294v105.44h-45.294z" fill="#ffffff" data-original="#000000" style="" class=""></path><path d="m135.51 406.56h45.196v105.44h-45.196z" fill="#ffffff" data-original="#000000" style="" class=""></path><path d="m120.62 105.38c0-42.53 19.71-80.55 50.49-105.38h-156.11c-8.28 0-15 6.72-15 15v482c0 8.28 6.72 15 15 15h15.12v-120.44c0-8.28 6.72-15 15-15h150.59c8.29 0 15 6.72 15 15v120.44h30.29v-272.07c-67.62-7.49-120.38-64.98-120.38-134.55zm-45.27 225.87h-30.12c-8.29 0-15-6.72-15-15s6.71-15 15-15h30.12c8.29 0 15 6.72 15 15s-6.71 15-15 15zm0-60.25h-30.12c-8.29 0-15-6.72-15-15s6.71-15 15-15h30.12c8.29 0 15 6.72 15 15s-6.71 15-15 15zm0-60.25h-30.12c-8.29 0-15-6.72-15-15s6.71-15 15-15h30.12c8.29 0 15 6.72 15 15s-6.71 15-15 15zm0-60.25h-30.12c-8.29 0-15-6.72-15-15s6.71-15 15-15h30.12c8.29 0 15 6.72 15 15s-6.71 15-15 15zm0-60.25h-30.12c-8.29 0-15-6.72-15-15s6.71-15 15-15h30.12c8.29 0 15 6.72 15 15s-6.71 15-15 15zm120.36 211c8.29 0 15 6.72 15 15s-6.71 15-15 15h-30.12c-8.29 0-15-6.72-15-15s6.71-15 15-15z" fill="#ffffff" data-original="#000000" style="" class=""></path><path d="m497 120.5h-106.46c-6.99 62.63-56.89 112.49-119.54 119.43v272.07h226c8.28 0 15-6.72 15-15v-361.5c0-8.28-6.72-15-15-15zm-150.62 331.25h-30.13c-8.28 0-15-6.72-15-15s6.72-15 15-15h30.13c8.28 0 15 6.72 15 15s-6.72 15-15 15zm0-60.25h-30.13c-8.28 0-15-6.72-15-15s6.72-15 15-15h30.13c8.28 0 15 6.72 15 15s-6.72 15-15 15zm0-60.25h-30.13c-8.28 0-15-6.72-15-15s6.72-15 15-15h30.13c8.28 0 15 6.72 15 15s-6.72 15-15 15zm120.39 120.5h-30.12c-8.29 0-15-6.72-15-15s6.71-15 15-15h30.12c8.29 0 15 6.72 15 15s-6.71 15-15 15zm0-60.25h-30.12c-8.29 0-15-6.72-15-15s6.71-15 15-15h30.12c8.29 0 15 6.72 15 15s-6.71 15-15 15zm0-60.25h-30.12c-8.29 0-15-6.72-15-15s6.71-15 15-15h30.12c8.29 0 15 6.72 15 15s-6.71 15-15 15zm0-60.25h-30.12c-8.29 0-15-6.72-15-15s6.71-15 15-15h30.12c8.29 0 15 6.72 15 15s-6.71 15-15 15zm0-60.25h-30.12c-8.29 0-15-6.72-15-15s6.71-15 15-15h30.12c8.29 0 15 6.72 15 15s-6.71 15-15 15z" fill="#ffffff" data-original="#000000" style="" class=""></path></g></g></svg>