<svg xmlns="http://www.w3.org/2000/svg" xmlns:xlink="http://www.w3.org/1999/xlink" xmlns:svgjs="http://svgjs.com/svgjs" width="512" height="512" x="0" y="0" viewBox="0 0 60 60" style="enable-background:new 0 0 512 512" xml:space="preserve" class=""><g><path xmlns="http://www.w3.org/2000/svg" d="m58 50v8a1 1 0 0 1 -1 1h-54a1 1 0 0 1 -1-1v-8a1 1 0 0 1 1-1h5v-5h-1a2.006 2.006 0 0 1 -2-2v-12a2.006 2.006 0 0 1 2-2h1v-5h-1.27a1 1 0 0 1 -.65-1.76l23.27-19.69a1 1 0 0 1 1.3 0l8.35 7.07v-6.62a1 1 0 0 1 1-1h6a1 1 0 0 1 1 1v13.38l6.92 5.86a1 1 0 0 1 -.65 1.76h-1.27v5h1a2.006 2.006 0 0 1 2 2v12a2.006 2.006 0 0 1 -2 2h-1v5h5a1 1 0 0 1 1 1z" fill="#ecf0f1" data-original="#ecf0f1" style="" class=""></path><path xmlns="http://www.w3.org/2000/svg" d="m58 53v5a1 1 0 0 1 -1 1h-54a1 1 0 0 1 -1-1v-5a2.015 2.015 0 0 0 2 2 2.006 2.006 0 0 0 2-2 2.015 2.015 0 0 0 2 2 2.006 2.006 0 0 0 2-2 2.015 2.015 0 0 0 2 2 2.006 2.006 0 0 0 2-2 2.015 2.015 0 0 0 2 2 2.006 2.006 0 0 0 2-2 2.015 2.015 0 0 0 2 2 2.006 2.006 0 0 0 2-2 2.015 2.015 0 0 0 2 2 2.006 2.006 0 0 0 2-2 2.015 2.015 0 0 0 2 2 2.006 2.006 0 0 0 2-2 2.015 2.015 0 0 0 2 2 2.006 2.006 0 0 0 2-2 2.015 2.015 0 0 0 2 2 2.006 2.006 0 0 0 2-2 2.015 2.015 0 0 0 2 2 2.006 2.006 0 0 0 2-2 2.015 2.015 0 0 0 2 2 2.006 2.006 0 0 0 2-2 2.015 2.015 0 0 0 2 2 2.006 2.006 0 0 0 2-2 2.015 2.015 0 0 0 2 2 2.006 2.006 0 0 0 2-2 2.015 2.015 0 0 0 2 2 2.006 2.006 0 0 0 2-2z" fill="#3b97d3" data-original="#3b97d3" style="" class=""></path><path xmlns="http://www.w3.org/2000/svg" d="m58 50v3a2.006 2.006 0 0 1 -2 2 2.015 2.015 0 0 1 -2-2 2.006 2.006 0 0 1 -2 2 2.015 2.015 0 0 1 -2-2 2.006 2.006 0 0 1 -2 2 2.015 2.015 0 0 1 -2-2 2.006 2.006 0 0 1 -2 2 2.015 2.015 0 0 1 -2-2 2.006 2.006 0 0 1 -2 2 2.015 2.015 0 0 1 -2-2 2.006 2.006 0 0 1 -2 2 2.015 2.015 0 0 1 -2-2 2.006 2.006 0 0 1 -2 2 2.015 2.015 0 0 1 -2-2 2.006 2.006 0 0 1 -2 2 2.015 2.015 0 0 1 -2-2 2.006 2.006 0 0 1 -2 2 2.015 2.015 0 0 1 -2-2 2.006 2.006 0 0 1 -2 2 2.015 2.015 0 0 1 -2-2 2.006 2.006 0 0 1 -2 2 2.015 2.015 0 0 1 -2-2 2.006 2.006 0 0 1 -2 2 2.015 2.015 0 0 1 -2-2 2.006 2.006 0 0 1 -2 2 2.015 2.015 0 0 1 -2-2 2.006 2.006 0 0 1 -2 2 2.015 2.015 0 0 1 -2-2v-3a1 1 0 0 1 1-1h54a1 1 0 0 1 1 1z" fill="#285680" data-original="#285680" style="" class=""></path><path xmlns="http://www.w3.org/2000/svg" d="m53.27 23h-46.54a1 1 0 0 1 -.65-1.76l23.27-19.69a1 1 0 0 1 1.3 0l8.35 7.07v-6.62a1 1 0 0 1 1-1h6a1 1 0 0 1 1 1v13.38l6.92 5.86a1 1 0 0 1 -.65 1.76z" fill="#285680" data-original="#285680" style="" class=""></path><rect xmlns="http://www.w3.org/2000/svg" fill="#3b97d3" height="16" rx="2" width="50" x="5" y="28" data-original="#3b97d3" style="" class=""></rect><g xmlns="http://www.w3.org/2000/svg" fill="#ecf0f1"><path d="m20 34a3 3 0 0 0 -3-3h-3a1 1 0 0 0 -1 1v8a1 1 0 0 0 2 0v-3h1.706a3.527 3.527 0 0 1 1.294 3 1 1 0 0 0 2 0 5.827 5.827 0 0 0 -1.152-3.655 2.984 2.984 0 0 0 1.152-2.345zm-5-1h2a1 1 0 0 1 0 2h-2z" fill="#ecf0f1" data-original="#ecf0f1" style="" class=""></path><path d="m27 33a1 1 0 0 0 0-2h-4a1 1 0 0 0 -1 1v8a1 1 0 0 0 1 1h4a1 1 0 0 0 0-2h-3v-2h2a1 1 0 0 0 0-2h-2v-2z" fill="#ecf0f1" data-original="#ecf0f1" style="" class=""></path><path d="m36 31a1 1 0 0 0 -1 1v4.513l-3.152-5.043a1 1 0 0 0 -1.848.53v8a1 1 0 0 0 2 0v-4.513l3.152 5.043a1 1 0 0 0 1.848-.53v-8a1 1 0 0 0 -1-1z" fill="#ecf0f1" data-original="#ecf0f1" style="" class=""></path><path d="m46 31h-6a1 1 0 0 0 0 2h2v7a1 1 0 0 0 2 0v-7h2a1 1 0 0 0 0-2z" fill="#ecf0f1" data-original="#ecf0f1" style="" class=""></path></g></g></svg>