<svg xmlns="http://www.w3.org/2000/svg" xmlns:xlink="http://www.w3.org/1999/xlink" xmlns:svgjs="http://svgjs.com/svgjs" width="512" height="512" x="0" y="0" viewBox="0 0 438 438.821" style="enable-background:new 0 0 512 512" xml:space="preserve" class=""><g><path xmlns="http://www.w3.org/2000/svg" d="m135.949219 412.347656c0 14.621094 11.851562 26.472656 26.46875 26.472656 14.621093 0 26.472656-11.851562 26.472656-26.46875 0-14.621093-11.851563-26.472656-26.46875-26.472656-14.613281.015625-26.457031 11.859375-26.472656 26.46875zm0 0" fill="#ffffff" data-original="#000000" style="" class=""></path><path xmlns="http://www.w3.org/2000/svg" d="m282.105469 412.347656c0 14.621094 11.851562 26.472656 26.46875 26.472656 14.621093 0 26.472656-11.851562 26.472656-26.46875 0-14.621093-11.851563-26.472656-26.46875-26.472656-14.613281.015625-26.457031 11.859375-26.472656 26.46875zm0 0" fill="#ffffff" data-original="#000000" style="" class=""></path><path xmlns="http://www.w3.org/2000/svg" d="m175.628906 72.660156v99.480469h143.566406v-40.984375c-1.339843-2.011719-1.339843-4.632812 0-6.648438v-51.847656c0-3.3125 2.6875-6 6-6h13.78125l-91.566406-66.660156-91.566406 66.660156h13.785156c3.3125 0 6 2.6875 6 6zm37.558594 25.902344c2.355469-2.332031 6.15625-2.316406 8.488281.039062l17.296875 17.476563 34.191406-34.1875c1.507813-1.546875 3.734376-2.167969 5.828126-1.617187 2.089843.550781 3.722656 2.183593 4.273437 4.277343.550781 2.089844-.066406 4.316407-1.617187 5.828125l-38.449219 38.449219c-1.125 1.125-2.652344 1.757813-4.242188 1.757813h-.015625c-1.597656-.003907-3.125-.644532-4.246094-1.777344l-21.546874-21.757813c-2.335938-2.355469-2.316407-6.15625.039062-8.488281zm0 0" fill="#ffffff" data-original="#000000" style="" class=""></path><path xmlns="http://www.w3.org/2000/svg" d="m6.410156 73.21875h42.695313c14.542969-.058594 26.941406 10.53125 29.160156 24.90625l33.804687 213.515625c3.117188 20.214844 20.558594 35.109375 41.011719 35.027344h208.925781c3.3125 0 6-2.6875 6-6s-2.6875-6-6-6h-208.925781c-14.542969.058593-26.941406-10.53125-29.160156-24.90625l-7.828125-49.457031h217.054688c12.574218-.007813 23.769531-7.976563 27.894531-19.859376l36.9375-106.613281h-66.785157v44.308594c0 3.316406-2.6875 6-6 6h-155.566406c-3.3125 0-6-2.683594-6-6v-44.308594h-67.5625l-5.949218-37.585937c-3.117188-20.214844-20.554688-35.109375-41.011719-35.027344h-42.695313c-3.3125 0-6 2.683594-6 6 0 3.3125 2.6875 6 6 6zm0 0" fill="#ffffff" data-original="#000000" style="" class=""></path></g></svg>