<svg xmlns="http://www.w3.org/2000/svg" xmlns:xlink="http://www.w3.org/1999/xlink" id="Capa_1" x="0px" y="0px" viewBox="0 0 612 792" style="enable-background:new 0 0 612 792;" xml:space="preserve">
<style type="text/css">
	.st0{fill:url(#SVGID_1_);}
	.st1{fill:url(#SVGID_2_);}
	.st2{fill:url(#SVGID_3_);}
	.st3{fill:url(#SVGID_4_);}
	.st4{fill:url(#SVGID_5_);}
	.st5{fill:url(#SVGID_6_);}
	.st6{fill:url(#SVGID_7_);}
	.st7{fill:url(#SVGID_8_);}
	.st8{fill:url(#SVGID_9_);}
	.st9{fill:url(#SVGID_10_);}
	.st10{fill:url(#SVGID_11_);}
	.st11{fill:url(#SVGID_12_);}
	.st12{fill:url(#SVGID_13_);stroke:#FFFFFF;stroke-width:2;stroke-miterlimit:10;}
	.st13{fill:#D2D2D2;stroke:#FFFFFF;stroke-width:2;stroke-miterlimit:10;}
	.st14{fill:url(#SVGID_14_);stroke:#FFFFFF;stroke-width:2;stroke-miterlimit:10;}
	.st15{fill:url(#SVGID_15_);}
	.st16{fill:#090607;}
	.st17{fill:#232321;stroke:#FFFFFF;stroke-width:2;stroke-miterlimit:10;}
	.st18{fill:#D4D4D4;stroke:#FFFFFF;stroke-width:2;stroke-miterlimit:10;}
	.st19{fill:#BD2326;stroke:#FFFFFF;stroke-width:2;stroke-miterlimit:10;}
	.st20{fill:#666462;stroke:#FFFFFF;stroke-width:2;stroke-miterlimit:10;}
	.st21{fill:#A7A7A7;stroke:#FFFFFF;stroke-width:2;stroke-miterlimit:10;}
	.st22{fill:#515151;stroke:#FFFFFF;stroke-width:2;stroke-miterlimit:10;}
	.st23{filter:url(#Adobe_OpacityMaskFilter);}
	.st24{fill:#FFFFFF;}
	.st25{mask:url(#SVGID_16_);fill:url(#SVGID_17_);}
</style>
<g>
	<linearGradient id="SVGID_1_" gradientUnits="userSpaceOnUse" x1="310.3181" y1="465.4543" x2="312.4323" y2="465.4543">
		<stop offset="0" style="stop-color:#757575"></stop>
		<stop offset="2.943754e-03" style="stop-color:#757575"></stop>
		<stop offset="0.2163" style="stop-color:#5D5D5D"></stop>
		<stop offset="0.4426" style="stop-color:#4C4C4C"></stop>
		<stop offset="0.6908" style="stop-color:#424242"></stop>
		<stop offset="1" style="stop-color:#3F3F3F"></stop>
	</linearGradient>
	<path class="st0" d="M312.43,485.17h-2.11v-39.43h2.11V485.17z"></path>
	<linearGradient id="SVGID_2_" gradientUnits="userSpaceOnUse" x1="318.199" y1="471.8897" x2="336.3316" y2="471.8897">
		<stop offset="0" style="stop-color:#757575"></stop>
		<stop offset="2.943754e-03" style="stop-color:#757575"></stop>
		<stop offset="0.2163" style="stop-color:#5D5D5D"></stop>
		<stop offset="0.4426" style="stop-color:#4C4C4C"></stop>
		<stop offset="0.6908" style="stop-color:#424242"></stop>
		<stop offset="1" style="stop-color:#3F3F3F"></stop>
	</linearGradient>
	<path class="st1" d="M336.33,485.17h-2.11v-18.69l-1.36-3.46l-2.76-1.74h-2.74l-2.83,1.79l-4.21,3.51v18.59h-2.11v-26.56h2.11v6.77   l3.84-4.9l3.03-1.87h4.53l3.13,1.92l1.5,5.79V485.17z"></path>
	<linearGradient id="SVGID_3_" gradientUnits="userSpaceOnUse" x1="342.0983" y1="471.8897" x2="376.2703" y2="471.8897">
		<stop offset="0" style="stop-color:#757575"></stop>
		<stop offset="2.943754e-03" style="stop-color:#757575"></stop>
		<stop offset="0.2163" style="stop-color:#5D5D5D"></stop>
		<stop offset="0.4426" style="stop-color:#4C4C4C"></stop>
		<stop offset="0.6908" style="stop-color:#424242"></stop>
		<stop offset="1" style="stop-color:#3F3F3F"></stop>
	</linearGradient>
	<path class="st2" d="M376.27,485.17h-2.11v-18.69l-1.38-3.46l-2.75-1.74h-2.75l-2.85,1.79l-4.19,3.51v18.59h-2.11v-18.69   l-1.36-3.46l-2.76-1.74h-2.74l-2.83,1.79l-4.21,3.51v18.59h-2.11v-26.56h2.11v6.77l3.84-4.9l3.03-1.87h4.53l3.13,1.92l1.28,5.05   l4.05-5.1l3.05-1.87h4.53l3.11,1.92l1.5,5.79V485.17z"></path>
	<linearGradient id="SVGID_4_" gradientUnits="userSpaceOnUse" x1="380.5743" y1="471.8897" x2="400.1918" y2="471.8897">
		<stop offset="0" style="stop-color:#757575"></stop>
		<stop offset="2.943754e-03" style="stop-color:#757575"></stop>
		<stop offset="0.2163" style="stop-color:#5D5D5D"></stop>
		<stop offset="0.4426" style="stop-color:#4C4C4C"></stop>
		<stop offset="0.6908" style="stop-color:#424242"></stop>
		<stop offset="1" style="stop-color:#3F3F3F"></stop>
	</linearGradient>
	<path class="st3" d="M400.19,473.79l-1.5,5.67l-3.01,3.82l-3.03,1.9h-4.53l-3.05-1.9l-2.99-3.82l-1.5-5.67v-3.79l1.5-5.67   l2.99-3.85l3.05-1.87h4.53l3.03,1.87l3.01,3.85l1.5,5.67V473.79z M398.06,473.66v-3.56l-1.4-5.36l-1.38-1.67l-2.78-1.79h-4.21   l-2.78,1.79l-1.38,1.67l-1.42,5.36v3.56l1.42,5.36l1.38,1.69l2.78,1.79h4.21l2.78-1.79l1.38-1.69L398.06,473.66z"></path>
	<linearGradient id="SVGID_5_" gradientUnits="userSpaceOnUse" x1="404.4947" y1="465.4543" x2="424.0912" y2="465.4543">
		<stop offset="0" style="stop-color:#757575"></stop>
		<stop offset="2.943754e-03" style="stop-color:#757575"></stop>
		<stop offset="0.2163" style="stop-color:#5D5D5D"></stop>
		<stop offset="0.4426" style="stop-color:#4C4C4C"></stop>
		<stop offset="0.6908" style="stop-color:#424242"></stop>
		<stop offset="1" style="stop-color:#3F3F3F"></stop>
	</linearGradient>
	<path class="st4" d="M424.09,473.79l-1.48,5.67l-3.01,3.82l-3.03,1.9h-4.55l-3.03-1.9l-2.38-3.05v4.95h-2.11v-39.43h2.11v17.79   l2.38-3.05l3.03-1.87h4.55l3.03,1.87l3.01,3.85l1.48,5.67V473.79z M421.98,473.66v-3.56l-1.42-5.36l-1.36-1.67l-2.81-1.79h-4.19   l-5.59,3.51v14.18l5.59,3.54h4.19l2.81-1.79l1.36-1.69L421.98,473.66z"></path>
	<linearGradient id="SVGID_6_" gradientUnits="userSpaceOnUse" x1="426.9301" y1="465.4543" x2="431.9721" y2="465.4543">
		<stop offset="0" style="stop-color:#757575"></stop>
		<stop offset="2.943754e-03" style="stop-color:#757575"></stop>
		<stop offset="0.2163" style="stop-color:#5D5D5D"></stop>
		<stop offset="0.4426" style="stop-color:#4C4C4C"></stop>
		<stop offset="0.6908" style="stop-color:#424242"></stop>
		<stop offset="1" style="stop-color:#3F3F3F"></stop>
	</linearGradient>
	<path class="st5" d="M431.97,449.99l-1.67,2.1h-1.71l-1.67-2.1v-2.15l1.67-2.1h1.71l1.67,2.1V449.99z M430.51,485.17h-2.11v-26.56   h2.11V485.17z"></path>
	<linearGradient id="SVGID_7_" gradientUnits="userSpaceOnUse" x1="436.275" y1="465.4543" x2="438.3893" y2="465.4543">
		<stop offset="0" style="stop-color:#757575"></stop>
		<stop offset="2.943754e-03" style="stop-color:#757575"></stop>
		<stop offset="0.2163" style="stop-color:#5D5D5D"></stop>
		<stop offset="0.4426" style="stop-color:#4C4C4C"></stop>
		<stop offset="0.6908" style="stop-color:#424242"></stop>
		<stop offset="1" style="stop-color:#3F3F3F"></stop>
	</linearGradient>
	<path class="st6" d="M438.39,485.17h-2.11v-39.43h2.11V485.17z"></path>
	<linearGradient id="SVGID_8_" gradientUnits="userSpaceOnUse" x1="442.6921" y1="465.4543" x2="447.7341" y2="465.4543">
		<stop offset="0" style="stop-color:#757575"></stop>
		<stop offset="2.943754e-03" style="stop-color:#757575"></stop>
		<stop offset="0.2163" style="stop-color:#5D5D5D"></stop>
		<stop offset="0.4426" style="stop-color:#4C4C4C"></stop>
		<stop offset="0.6908" style="stop-color:#424242"></stop>
		<stop offset="1" style="stop-color:#3F3F3F"></stop>
	</linearGradient>
	<path class="st7" d="M447.73,449.99l-1.67,2.1h-1.71l-1.67-2.1v-2.15l1.67-2.1h1.71l1.67,2.1V449.99z M446.27,485.17h-2.11v-26.56   h2.11V485.17z"></path>
	<linearGradient id="SVGID_9_" gradientUnits="userSpaceOnUse" x1="450.572" y1="471.8897" x2="470.1684" y2="471.8897">
		<stop offset="0" style="stop-color:#757575"></stop>
		<stop offset="2.943754e-03" style="stop-color:#757575"></stop>
		<stop offset="0.2163" style="stop-color:#5D5D5D"></stop>
		<stop offset="0.4426" style="stop-color:#4C4C4C"></stop>
		<stop offset="0.6908" style="stop-color:#424242"></stop>
		<stop offset="1" style="stop-color:#3F3F3F"></stop>
	</linearGradient>
	<path class="st8" d="M470.17,485.17h-2.11v-4.95l-2.38,3.05l-3.03,1.9h-4.53l-3.05-1.9l-2.99-3.82l-1.5-5.67v-3.79l1.5-5.67   l2.99-3.85l3.05-1.87h4.53l3.03,1.87l2.38,3.05v-4.92h2.11V485.17z M468.05,478.97v-14.18l-5.57-3.51h-4.21l-2.78,1.79l-1.38,1.67   l-1.42,5.36v3.56l1.42,5.36l1.38,1.69l2.78,1.79h4.21L468.05,478.97z"></path>
	<linearGradient id="SVGID_10_" gradientUnits="userSpaceOnUse" x1="475.9363" y1="471.8897" x2="489.7194" y2="471.8897">
		<stop offset="0" style="stop-color:#757575"></stop>
		<stop offset="2.943754e-03" style="stop-color:#757575"></stop>
		<stop offset="0.2163" style="stop-color:#5D5D5D"></stop>
		<stop offset="0.4426" style="stop-color:#4C4C4C"></stop>
		<stop offset="0.6908" style="stop-color:#424242"></stop>
		<stop offset="1" style="stop-color:#3F3F3F"></stop>
	</linearGradient>
	<path class="st9" d="M489.72,461.28h-4.64l-2.78,1.79l-2.66,3.56l-1.58,3.51v15.03h-2.11v-26.56h2.11v8.87l0.83-3.15l3.01-3.85   l3.03-1.87h4.8V461.28z"></path>
	<linearGradient id="SVGID_11_" gradientUnits="userSpaceOnUse" x1="488.1867" y1="465.4543" x2="493.2287" y2="465.4543">
		<stop offset="0" style="stop-color:#757575"></stop>
		<stop offset="2.943754e-03" style="stop-color:#757575"></stop>
		<stop offset="0.2163" style="stop-color:#5D5D5D"></stop>
		<stop offset="0.4426" style="stop-color:#4C4C4C"></stop>
		<stop offset="0.6908" style="stop-color:#424242"></stop>
		<stop offset="1" style="stop-color:#3F3F3F"></stop>
	</linearGradient>
	<path class="st10" d="M493.23,449.99l-1.67,2.1h-1.71l-1.67-2.1v-2.15l1.67-2.1h1.71l1.67,2.1V449.99z M491.76,485.17h-2.11v-26.56   h2.11V485.17z"></path>
	<linearGradient id="SVGID_12_" gradientUnits="userSpaceOnUse" x1="496.0677" y1="471.8897" x2="515.6641" y2="471.8897">
		<stop offset="0" style="stop-color:#757575"></stop>
		<stop offset="2.943754e-03" style="stop-color:#757575"></stop>
		<stop offset="0.2163" style="stop-color:#5D5D5D"></stop>
		<stop offset="0.4426" style="stop-color:#4C4C4C"></stop>
		<stop offset="0.6908" style="stop-color:#424242"></stop>
		<stop offset="1" style="stop-color:#3F3F3F"></stop>
	</linearGradient>
	<path class="st11" d="M515.66,485.17h-2.11v-4.95l-2.38,3.05l-3.03,1.9h-4.53l-3.05-1.9l-2.99-3.82l-1.5-5.67v-3.79l1.5-5.67   l2.99-3.85l3.05-1.87h4.53l3.03,1.87l2.38,3.05v-4.92h2.11V485.17z M513.55,478.97v-14.18l-5.57-3.51h-4.21l-2.78,1.79l-1.38,1.67   l-1.42,5.36v3.56l1.42,5.36l1.38,1.69l2.78,1.79h4.21L513.55,478.97z"></path>
</g>
<linearGradient id="SVGID_13_" gradientUnits="userSpaceOnUse" x1="158.9904" y1="300.3797" x2="158.9904" y2="501.6725">
	<stop offset="0" style="stop-color:#D2D2D2"></stop>
	<stop offset="0.1108" style="stop-color:#ACACAC"></stop>
	<stop offset="0.2678" style="stop-color:#7C7C7C"></stop>
	<stop offset="0.4243" style="stop-color:#545455"></stop>
	<stop offset="0.5776" style="stop-color:#363636"></stop>
	<stop offset="0.7266" style="stop-color:#202021"></stop>
	<stop offset="0.8697" style="stop-color:#121213"></stop>
	<stop offset="1" style="stop-color:#0E0E0F"></stop>
</linearGradient>
<polygon class="st12" points="165.26,310.2 152.72,300.38 152.72,501.67 165.26,491.31 "></polygon>
<rect x="170.17" y="287.29" class="st13" width="29.46" height="201.29"></rect>
<linearGradient id="SVGID_14_" gradientUnits="userSpaceOnUse" x1="119.7137" y1="300.3797" x2="119.7137" y2="501.6725">
	<stop offset="0" style="stop-color:#757575;stop-opacity:0.6"></stop>
	<stop offset="0.1634" style="stop-color:#6F6F6F;stop-opacity:0.6654"></stop>
	<stop offset="0.392" style="stop-color:#5C5C5D;stop-opacity:0.7568"></stop>
	<stop offset="0.6589" style="stop-color:#3F3F3F;stop-opacity:0.8635"></stop>
	<stop offset="0.9527" style="stop-color:#151516;stop-opacity:0.9811"></stop>
	<stop offset="1" style="stop-color:#0E0E0F"></stop>
</linearGradient>
<rect x="85.62" y="300.38" class="st14" width="68.19" height="201.29"></rect>
<linearGradient id="SVGID_15_" gradientUnits="userSpaceOnUse" x1="182.3109" y1="317.2905" x2="182.3109" y2="488.5803">
	<stop offset="0" style="stop-color:#757575;stop-opacity:0.6"></stop>
	<stop offset="0.1634" style="stop-color:#6F6F6F;stop-opacity:0.6654"></stop>
	<stop offset="0.392" style="stop-color:#5C5C5D;stop-opacity:0.7568"></stop>
	<stop offset="0.6589" style="stop-color:#3F3F3F;stop-opacity:0.8635"></stop>
	<stop offset="0.9527" style="stop-color:#151516;stop-opacity:0.9811"></stop>
	<stop offset="1" style="stop-color:#0E0E0F"></stop>
</linearGradient>
<rect x="171.54" y="317.29" class="st15" width="21.55" height="171.29"></rect>
<rect x="85.62" y="417.12" class="st16" width="20.18" height="26.87"></rect>
<rect x="190.36" y="358.75" class="st17" width="57.28" height="138.56"></rect>
<rect x="85.62" y="383.34" class="st16" width="20.18" height="23.46"></rect>
<rect x="85.62" y="346.16" class="st16" width="20.18" height="23.46"></rect>
<rect x="20.43" y="342.93" class="st18" width="74.46" height="22.37"></rect>
<rect x="191.45" y="383.34" class="st16" width="54.55" height="26.68"></rect>
<rect x="191.45" y="430.55" class="st16" width="54.55" height="23.66"></rect>
<rect x="191.45" y="359.84" class="st16" width="27.29" height="9.77"></rect>
<rect x="125.99" y="417.12" class="st19" width="465.59" height="24.28"></rect>
<rect x="125.99" y="381.39" class="st20" width="124.38" height="22.64"></rect>
<rect x="125.99" y="342.93" class="st19" width="78.55" height="22.37"></rect>
<rect x="20.43" y="417.12" class="st21" width="74.46" height="24.28"></rect>
<rect x="20.43" y="381.39" class="st22" width="74.46" height="22.64"></rect>
<defs>
	<filter id="Adobe_OpacityMaskFilter" filterUnits="userSpaceOnUse" x="276.67" y="336.88" width="317.49" height="99.83">
		
	</filter>
</defs>
<mask maskUnits="userSpaceOnUse" x="276.67" y="336.88" width="317.49" height="99.83" id="SVGID_16_">
	<g class="st23">
		<g>
			<g>
				<path class="st24" d="M323.91,351.19h-6.33c-0.61,0-1.15,0.4-1.33,0.99l-10.24,34.15c-0.4,1.32-2.27,1.32-2.66,0l-10.16-34.14      c-0.18-0.59-0.72-0.99-1.33-0.99h-6.54c-0.77,0-1.39,0.62-1.39,1.39v58.38c0,0.77,0.62,1.39,1.39,1.39h6.22      c0.77,0,1.39-0.62,1.39-1.39v-18.69c0-1.6,2.26-1.93,2.72-0.4l5.87,19.49c0.18,0.59,0.72,0.99,1.33,0.99h3.61      c0.61,0,1.16-0.4,1.33-0.99l5.76-19.3c0.46-1.53,2.72-1.2,2.72,0.4v18.51c0,0.77,0.62,1.39,1.39,1.39h6.24      c0.77,0,1.39-0.62,1.39-1.39v-58.38C325.3,351.81,324.68,351.19,323.91,351.19z"></path>
				<path class="st24" d="M356.31,401.99h-12.46c-0.77,0-1.39-0.62-1.39-1.39v-12.62c0-0.77,0.62-1.39,1.39-1.39h10.58      c0.77,0,1.39-0.62,1.39-1.39v-7.55c0-0.77-0.62-1.39-1.39-1.39h-10.58c-0.77,0-1.39-0.62-1.39-1.39v-11.89      c0-0.77,0.62-1.39,1.39-1.39h11.65c0.77,0,1.39-0.62,1.39-1.39v-7.62c0-0.77-0.62-1.39-1.39-1.39h-20.72      c-0.77,0-1.39,0.62-1.39,1.39v58.38c0,0.77,0.62,1.39,1.39,1.39h21.54c0.77,0,1.39-0.62,1.39-1.39v-7.59      C357.69,402.61,357.07,401.99,356.31,401.99z"></path>
				<path class="st24" d="M389.31,351.19h-27.37c-0.77,0-1.39,0.62-1.39,1.39v7.62c0,0.77,0.62,1.39,1.39,1.39h7.75      c0.77,0,1.39,0.62,1.39,1.39v47.98c0,0.77,0.62,1.39,1.39,1.39h6.29c0.77,0,1.39-0.62,1.39-1.39v-47.98      c0-0.77,0.62-1.39,1.39-1.39h7.77c0.77,0,1.39-0.62,1.39-1.39v-7.62C390.7,351.81,390.08,351.19,389.31,351.19z"></path>
				<path class="st24" d="M418.57,391.39c-0.43-1.21-0.84-2.3-1.23-3.24c-0.41-0.99-0.84-1.89-1.27-2.68      c-0.18-0.32-0.36-0.63-0.55-0.92c0.3-0.22,0.58-0.44,0.86-0.68c1.27-1.1,2.36-2.45,3.24-4c0.85-1.5,1.51-3.23,1.96-5.13      c0.44-1.86,0.66-3.9,0.66-6.07c0-2.71-0.35-5.16-1.05-7.27c-0.71-2.16-1.69-4-2.92-5.49c-1.26-1.52-2.74-2.7-4.38-3.5      c-1.67-0.8-3.42-1.21-5.22-1.21H396.7c-0.77,0-1.39,0.62-1.39,1.39v58.38c0,0.77,0.62,1.39,1.39,1.39h6.29      c0.77,0,1.39-0.62,1.39-1.39v-22.75h1.19c0.37,0,0.68,0.06,0.94,0.17c0.22,0.1,0.47,0.31,0.73,0.6      c0.38,0.44,0.77,1.09,1.18,1.92c0.46,0.95,0.95,2.18,1.45,3.64l5.84,16.88c0.19,0.56,0.72,0.93,1.31,0.93h7.07      c0.96,0,1.63-0.95,1.31-1.86L418.57,391.39z M412.53,373.15c-0.31,1.09-0.73,2.02-1.25,2.75c-0.47,0.65-1,1.13-1.64,1.47      c-0.61,0.32-1.27,0.48-2.03,0.48h-1.84c-0.77,0-1.39-0.62-1.39-1.39v-13.48c0-0.77,0.62-1.39,1.39-1.39h2.12      c2.17,0,3.09,0.86,3.64,1.62c0.99,1.34,1.49,3.33,1.49,5.91C413.02,370.63,412.86,371.99,412.53,373.15z"></path>
				<path class="st24" d="M462.21,359.63c-1.65-2.85-3.7-5.12-6.1-6.76c-2.53-1.73-5.41-2.6-8.56-2.6c-3.35,0-6.39,0.88-9.05,2.61      c-2.55,1.67-4.72,4-6.45,6.93c-1.66,2.81-2.93,6.2-3.78,10.08c-0.83,3.78-1.25,7.99-1.25,12.51c0,4.12,0.42,8.04,1.26,11.65      c0.85,3.68,2.1,6.95,3.7,9.71c1.67,2.88,3.76,5.2,6.21,6.89c2.58,1.78,5.52,2.69,8.73,2.69c3.38,0,6.43-0.93,9.05-2.75      c2.5-1.74,4.61-4.14,6.29-7.14c1.6-2.87,2.82-6.28,3.64-10.14c0.79-3.78,1.2-7.91,1.2-12.29c0-4.19-0.41-8.14-1.23-11.73      C465.02,365.6,463.79,362.36,462.21,359.63z M457.03,390.85L457.03,390.85c-0.53,2.65-1.31,4.94-2.32,6.8      c-0.94,1.73-2.1,3.08-3.45,4.01c-1.25,0.87-2.68,1.29-4.38,1.29c-1.65,0-3.03-0.45-4.22-1.38c-1.36-1.05-2.51-2.5-3.42-4.31      c-0.99-1.96-1.75-4.28-2.24-6.88c-0.51-2.68-0.77-5.53-0.75-8.48c0.02-3.1,0.31-6.06,0.87-8.78c0.54-2.64,1.35-4.96,2.38-6.89      c0.97-1.8,2.15-3.23,3.52-4.25c1.21-0.91,2.58-1.35,4.17-1.35c1.76,0,3.21,0.44,4.41,1.35c1.34,1,2.47,2.42,3.36,4.19      c0.97,1.92,1.69,4.23,2.16,6.86c0.49,2.74,0.73,5.68,0.73,8.75C457.86,385.05,457.58,388.11,457.03,390.85z"></path>
				<path class="st24" d="M514.83,391.39c-0.43-1.21-0.84-2.3-1.23-3.24c-0.41-0.99-0.84-1.89-1.27-2.68      c-0.18-0.32-0.36-0.63-0.55-0.92c0.3-0.22,0.58-0.44,0.86-0.68c1.27-1.1,2.36-2.45,3.24-4c0.85-1.5,1.51-3.23,1.96-5.13      c0.44-1.86,0.66-3.9,0.66-6.07c0-2.71-0.35-5.16-1.05-7.27c-0.71-2.16-1.69-4-2.92-5.49c-1.26-1.52-2.74-2.7-4.38-3.5      c-1.67-0.8-3.42-1.21-5.22-1.21h-11.98c-0.77,0-1.39,0.62-1.39,1.39v58.38c0,0.77,0.62,1.39,1.39,1.39h6.29      c0.77,0,1.39-0.62,1.39-1.39v-22.75h1.19c0.37,0,0.68,0.06,0.94,0.17c0.22,0.1,0.47,0.31,0.73,0.6      c0.38,0.44,0.77,1.09,1.18,1.92c0.46,0.95,0.95,2.18,1.45,3.64l5.84,16.88c0.19,0.56,0.72,0.93,1.31,0.93h7.07      c0.96,0,1.63-0.95,1.31-1.86L514.83,391.39z M508.79,373.15c-0.31,1.09-0.73,2.02-1.25,2.75c-0.47,0.65-1,1.13-1.64,1.47      c-0.61,0.32-1.27,0.48-2.03,0.48h-1.84c-0.77,0-1.39-0.62-1.39-1.39v-13.48c0-0.77,0.62-1.39,1.39-1.39h2.12      c2.17,0,3.09,0.86,3.64,1.62c0.99,1.34,1.49,3.33,1.49,5.91C509.29,370.63,509.12,371.99,508.79,373.15z"></path>
				<path class="st24" d="M548.88,401.99h-12.46c-0.77,0-1.39-0.62-1.39-1.39v-12.62c0-0.77,0.62-1.39,1.39-1.39h10.58      c0.77,0,1.39-0.62,1.39-1.39v-7.55c0-0.77-0.62-1.39-1.39-1.39h-10.58c-0.77,0-1.39-0.62-1.39-1.39v-11.89      c0-0.77,0.62-1.39,1.39-1.39h11.65c0.77,0,1.39-0.62,1.39-1.39v-7.62c0-0.77-0.62-1.39-1.39-1.39h-20.72      c-0.77,0-1.39,0.62-1.39,1.39v58.38c0,0.77,0.62,1.39,1.39,1.39h21.54c0.77,0,1.39-0.62,1.39-1.39v-7.59      C550.27,402.61,549.64,401.99,548.88,401.99z"></path>
				<path class="st24" d="M585.43,359.23L585.43,359.23c-3.74-5.33-9.29-8.04-16.5-8.04h-11.06c-0.77,0-1.39,0.62-1.39,1.39v58.38      c0,0.77,0.62,1.39,1.39,1.39h10.6c3.49,0,6.69-0.81,9.5-2.4c2.77-1.57,5.15-3.8,7.07-6.65c1.86-2.75,3.29-6.07,4.26-9.89      c0.95-3.72,1.43-7.89,1.43-12.38C590.74,371.59,588.95,364.25,585.43,359.23z M580.49,390.65c-0.64,2.59-1.55,4.77-2.73,6.48      c-1.12,1.62-2.43,2.81-4.01,3.64c-1.58,0.82-3.36,1.23-5.43,1.23h-1.38c-0.77,0-1.39-0.62-1.39-1.39v-37.62      c0-0.77,0.62-1.39,1.39-1.39h1.76c5.49,0,12.78,2.03,12.78,19.6C581.49,384.76,581.15,387.94,580.49,390.65z"></path>
			</g>
		</g>
	</g>
</mask>
<linearGradient id="SVGID_17_" gradientUnits="userSpaceOnUse" x1="276.6738" y1="386.7974" x2="594.16" y2="386.7974">
	<stop offset="0" style="stop-color:#757575"></stop>
	<stop offset="0.1637" style="stop-color:#6F6F6F"></stop>
	<stop offset="0.391" style="stop-color:#5D5D5D"></stop>
	<stop offset="0.6558" style="stop-color:#3F3F40"></stop>
	<stop offset="0.9467" style="stop-color:#161617"></stop>
	<stop offset="1" style="stop-color:#0E0E0F"></stop>
</linearGradient>
<rect x="276.67" y="336.88" class="st25" width="317.49" height="99.83"></rect>
</svg>