<svg xmlns="http://www.w3.org/2000/svg" xmlns:xlink="http://www.w3.org/1999/xlink" id="Capa_1" data-name="Capa 1" viewBox="0 0 574.73 217.51"><defs><style>.cls-1{fill:#fff;}.cls-2{fill:url(#Degradado_sin_nombre_56);}.cls-3{fill:url(#Degradado_sin_nombre_56-2);}.cls-4{fill:url(#Degradado_sin_nombre_56-3);}.cls-5{fill:url(#Degradado_sin_nombre_56-4);}.cls-6{fill:url(#Degradado_sin_nombre_56-5);}.cls-7{fill:url(#Degradado_sin_nombre_56-6);}.cls-8{fill:url(#Degradado_sin_nombre_56-7);}.cls-9{fill:url(#Degradado_sin_nombre_56-8);}.cls-10{fill:url(#Degradado_sin_nombre_56-9);}.cls-11{fill:url(#Degradado_sin_nombre_56-10);}.cls-12{fill:url(#Degradado_sin_nombre_56-11);}.cls-13{fill:url(#Degradado_sin_nombre_56-12);}.cls-14,.cls-15,.cls-16,.cls-19,.cls-20,.cls-21,.cls-22,.cls-23,.cls-24{stroke:#fff;stroke-miterlimit:10;stroke-width:2px;}.cls-14{fill:url(#Degradado_sin_nombre_18);}.cls-15{fill:#d2d2d2;}.cls-16{fill:url(#Degradado_sin_nombre_42);}.cls-17{fill:url(#Degradado_sin_nombre_41);}.cls-18{fill:#090607;}.cls-19{fill:#232321;}.cls-20{fill:#d4d4d4;}.cls-21{fill:#bd2326;}.cls-22{fill:#666462;}.cls-23{fill:#a7a7a7;}.cls-24{fill:#515151;}.cls-25{mask:url(#mask);}.cls-26{fill:url(#Degradado_sin_nombre_53);}</style><linearGradient id="Degradado_sin_nombre_56" x1="310.32" y1="203.21" x2="312.43" y2="203.21" gradientUnits="userSpaceOnUse"><stop offset="0" stop-color="#757575"></stop><stop offset="0" stop-color="#757575"></stop><stop offset="0.22" stop-color="#5d5d5d"></stop><stop offset="0.44" stop-color="#4c4c4c"></stop><stop offset="0.69" stop-color="#424242"></stop><stop offset="1" stop-color="#3f3f3f"></stop></linearGradient><linearGradient id="Degradado_sin_nombre_56-2" x1="318.2" y1="209.65" x2="336.33" y2="209.65" xlink:href="#Degradado_sin_nombre_56"></linearGradient><linearGradient id="Degradado_sin_nombre_56-3" x1="342.1" y1="209.65" x2="376.27" y2="209.65" xlink:href="#Degradado_sin_nombre_56"></linearGradient><linearGradient id="Degradado_sin_nombre_56-4" x1="380.57" y1="209.65" x2="400.19" y2="209.65" xlink:href="#Degradado_sin_nombre_56"></linearGradient><linearGradient id="Degradado_sin_nombre_56-5" x1="404.49" y1="203.21" x2="424.09" y2="203.21" xlink:href="#Degradado_sin_nombre_56"></linearGradient><linearGradient id="Degradado_sin_nombre_56-6" x1="426.93" y1="203.21" x2="431.97" y2="203.21" xlink:href="#Degradado_sin_nombre_56"></linearGradient><linearGradient id="Degradado_sin_nombre_56-7" x1="436.27" y1="203.21" x2="438.39" y2="203.21" xlink:href="#Degradado_sin_nombre_56"></linearGradient><linearGradient id="Degradado_sin_nombre_56-8" x1="442.69" y1="203.21" x2="447.73" y2="203.21" xlink:href="#Degradado_sin_nombre_56"></linearGradient><linearGradient id="Degradado_sin_nombre_56-9" x1="450.57" y1="209.65" x2="470.17" y2="209.65" xlink:href="#Degradado_sin_nombre_56"></linearGradient><linearGradient id="Degradado_sin_nombre_56-10" x1="475.94" y1="209.65" x2="489.72" y2="209.65" xlink:href="#Degradado_sin_nombre_56"></linearGradient><linearGradient id="Degradado_sin_nombre_56-11" x1="488.19" y1="203.21" x2="493.23" y2="203.21" xlink:href="#Degradado_sin_nombre_56"></linearGradient><linearGradient id="Degradado_sin_nombre_56-12" x1="496.07" y1="209.65" x2="515.66" y2="209.65" xlink:href="#Degradado_sin_nombre_56"></linearGradient><linearGradient id="Degradado_sin_nombre_18" x1="139.56" y1="14.09" x2="139.56" y2="215.39" gradientUnits="userSpaceOnUse"><stop offset="0" stop-color="#d2d2d2"></stop><stop offset="0.11" stop-color="#acacac"></stop><stop offset="0.27" stop-color="#7c7c7c"></stop><stop offset="0.42" stop-color="#545455"></stop><stop offset="0.58" stop-color="#363636"></stop><stop offset="0.73" stop-color="#202021"></stop><stop offset="0.87" stop-color="#121213"></stop><stop offset="1" stop-color="#0e0e0f"></stop></linearGradient><linearGradient id="Degradado_sin_nombre_42" x1="100.28" y1="14.09" x2="100.28" y2="215.39" gradientUnits="userSpaceOnUse"><stop offset="0" stop-color="#757575" stop-opacity="0.6"></stop><stop offset="0.24" stop-color="#696969" stop-opacity="0.65"></stop><stop offset="0.58" stop-color="#484848" stop-opacity="0.78"></stop><stop offset="0.98" stop-color="#121212" stop-opacity="0.99"></stop><stop offset="1" stop-color="#0e0e0f"></stop></linearGradient><linearGradient id="Degradado_sin_nombre_41" x1="162.88" y1="31" x2="162.88" y2="202.29" xlink:href="#Degradado_sin_nombre_42"></linearGradient><mask id="mask" x="257.24" y="50.6" width="317.49" height="99.83" maskUnits="userSpaceOnUse"><g transform="translate(-19.43 -24.05)"><path class="cls-1" d="M323.91,89h-6.33a1.39,1.39,0,0,0-1.33,1L306,124.09a1.4,1.4,0,0,1-2.67,0L293.19,89.94a1.39,1.39,0,0,0-1.33-1h-6.53a1.39,1.39,0,0,0-1.39,1.39v58.39a1.38,1.38,0,0,0,1.39,1.38h6.21a1.38,1.38,0,0,0,1.39-1.38V130a1.39,1.39,0,0,1,2.72-.4l5.87,19.5a1.4,1.4,0,0,0,1.33,1h3.62a1.39,1.39,0,0,0,1.33-1l5.76-19.3a1.39,1.39,0,0,1,2.72.4v18.51a1.38,1.38,0,0,0,1.39,1.38h6.24a1.38,1.38,0,0,0,1.39-1.38V90.34A1.39,1.39,0,0,0,323.91,89Z"></path><path class="cls-1" d="M356.31,139.75H343.84a1.39,1.39,0,0,1-1.39-1.39V125.74a1.39,1.39,0,0,1,1.39-1.39h10.58a1.39,1.39,0,0,0,1.39-1.39v-7.55a1.39,1.39,0,0,0-1.39-1.39H343.84a1.39,1.39,0,0,1-1.39-1.39V100.74a1.39,1.39,0,0,1,1.39-1.39h11.65A1.38,1.38,0,0,0,356.88,98V90.34A1.39,1.39,0,0,0,355.49,89H334.77a1.39,1.39,0,0,0-1.39,1.39v58.39a1.38,1.38,0,0,0,1.39,1.38h21.54a1.38,1.38,0,0,0,1.38-1.38v-7.59A1.38,1.38,0,0,0,356.31,139.75Z"></path><path class="cls-1" d="M389.31,89H361.94a1.39,1.39,0,0,0-1.39,1.39V98a1.38,1.38,0,0,0,1.39,1.38h7.75a1.39,1.39,0,0,1,1.38,1.39v48a1.39,1.39,0,0,0,1.39,1.38h6.3a1.39,1.39,0,0,0,1.39-1.38v-48a1.39,1.39,0,0,1,1.39-1.39h7.77A1.38,1.38,0,0,0,390.7,98V90.34A1.39,1.39,0,0,0,389.31,89Z"></path><path class="cls-1" d="M418.57,129.15c-.42-1.2-.84-2.29-1.23-3.24a26,26,0,0,0-1.27-2.68c-.17-.32-.36-.63-.54-.92.29-.22.58-.45.86-.69a15,15,0,0,0,3.24-4,19.54,19.54,0,0,0,2-5.13,26.45,26.45,0,0,0,.66-6.07,23.25,23.25,0,0,0-1.05-7.28,16.62,16.62,0,0,0-2.92-5.48,13,13,0,0,0-4.38-3.5A12,12,0,0,0,408.68,89h-12a1.39,1.39,0,0,0-1.39,1.39v58.39a1.38,1.38,0,0,0,1.39,1.38H403a1.38,1.38,0,0,0,1.39-1.38V126h1.19a2.39,2.39,0,0,1,.94.17,2.44,2.44,0,0,1,.73.6,9,9,0,0,1,1.17,1.92,34.54,34.54,0,0,1,1.46,3.64l5.84,16.88a1.38,1.38,0,0,0,1.31.93h7.07a1.38,1.38,0,0,0,1.31-1.85Zm-6-18.24a9,9,0,0,1-1.25,2.75,4.85,4.85,0,0,1-1.64,1.47,4.25,4.25,0,0,1-2,.48h-1.84a1.39,1.39,0,0,1-1.39-1.39V100.74a1.39,1.39,0,0,1,1.39-1.39h2.12a4,4,0,0,1,3.64,1.62,9.91,9.91,0,0,1,1.49,5.91A14.88,14.88,0,0,1,412.53,110.91Z"></path><path class="cls-1" d="M462.21,97.39a20.45,20.45,0,0,0-6.1-6.76A14.89,14.89,0,0,0,447.54,88a16.24,16.24,0,0,0-9,2.61,20.68,20.68,0,0,0-6.45,6.94,34.19,34.19,0,0,0-3.78,10.08,58.54,58.54,0,0,0-1.26,12.5,52.14,52.14,0,0,0,1.26,11.65,34.63,34.63,0,0,0,3.71,9.7,21.17,21.17,0,0,0,6.2,6.89,15,15,0,0,0,8.73,2.69,15.51,15.51,0,0,0,9-2.75,21.09,21.09,0,0,0,6.29-7.14,35.9,35.9,0,0,0,3.63-10.14,59.58,59.58,0,0,0,1.2-12.29A52.91,52.91,0,0,0,465.85,107,34.37,34.37,0,0,0,462.21,97.39ZM457,128.61h0a24.3,24.3,0,0,1-2.32,6.8,11.46,11.46,0,0,1-3.45,4,7.47,7.47,0,0,1-4.38,1.29,6.61,6.61,0,0,1-4.22-1.38,12.37,12.37,0,0,1-3.42-4.31,26.47,26.47,0,0,1-2.25-6.88,44,44,0,0,1-.75-8.49,45.29,45.29,0,0,1,.87-8.78A25.55,25.55,0,0,1,439.5,104,12.82,12.82,0,0,1,443,99.74a6.73,6.73,0,0,1,4.18-1.35,7.11,7.11,0,0,1,4.41,1.34,11.77,11.77,0,0,1,3.36,4.19,25.15,25.15,0,0,1,2.16,6.86,50,50,0,0,1,.74,8.75A46.47,46.47,0,0,1,457,128.61Z"></path><path class="cls-1" d="M514.83,129.15c-.42-1.2-.84-2.29-1.23-3.24a26,26,0,0,0-1.26-2.68c-.18-.32-.36-.63-.55-.92.29-.22.58-.45.86-.69a15,15,0,0,0,3.24-4,19.54,19.54,0,0,0,2-5.13,26.45,26.45,0,0,0,.66-6.07,23.25,23.25,0,0,0-1-7.28,16.62,16.62,0,0,0-2.92-5.48,13,13,0,0,0-4.38-3.5A12,12,0,0,0,504.94,89H493a1.39,1.39,0,0,0-1.39,1.39v58.39a1.38,1.38,0,0,0,1.39,1.38h6.3a1.38,1.38,0,0,0,1.38-1.38V126h1.19a2.39,2.39,0,0,1,.94.17,2.44,2.44,0,0,1,.73.6,9,9,0,0,1,1.17,1.92,34.54,34.54,0,0,1,1.46,3.64L512,149.18a1.39,1.39,0,0,0,1.31.93h7.08a1.38,1.38,0,0,0,1.3-1.85Zm-6-18.24a9,9,0,0,1-1.25,2.75,4.85,4.85,0,0,1-1.64,1.47,4.25,4.25,0,0,1-2,.48H502a1.39,1.39,0,0,1-1.39-1.39V100.74A1.4,1.4,0,0,1,502,99.35h2.12a4,4,0,0,1,3.64,1.62,9.91,9.91,0,0,1,1.5,5.91A14.86,14.86,0,0,1,508.79,110.91Z"></path><path class="cls-1" d="M548.88,139.75H536.41a1.39,1.39,0,0,1-1.39-1.39V125.74a1.39,1.39,0,0,1,1.39-1.39H547a1.39,1.39,0,0,0,1.39-1.39v-7.55A1.39,1.39,0,0,0,547,114H536.41a1.39,1.39,0,0,1-1.39-1.39V100.74a1.4,1.4,0,0,1,1.39-1.39h11.65A1.38,1.38,0,0,0,549.45,98V90.34A1.39,1.39,0,0,0,548.06,89H527.34A1.39,1.39,0,0,0,526,90.34v58.39a1.38,1.38,0,0,0,1.39,1.38h21.54a1.39,1.39,0,0,0,1.39-1.38v-7.59A1.39,1.39,0,0,0,548.88,139.75Z"></path><path class="cls-1" d="M585.43,97h0c-3.74-5.33-9.29-8-16.5-8H557.87a1.39,1.39,0,0,0-1.39,1.39v58.39a1.39,1.39,0,0,0,1.39,1.38h10.61a19.1,19.1,0,0,0,9.5-2.39,21.11,21.11,0,0,0,7.07-6.65,31.43,31.43,0,0,0,4.26-9.89,50.22,50.22,0,0,0,1.43-12.38C590.74,109.35,589,102,585.43,97Zm-4.94,31.42a19.93,19.93,0,0,1-2.73,6.48,11,11,0,0,1-4,3.63,11.41,11.41,0,0,1-5.43,1.23H567a1.39,1.39,0,0,1-1.39-1.39V100.74A1.39,1.39,0,0,1,567,99.35h1.75c5.49,0,12.79,2,12.79,19.6A40.38,40.38,0,0,1,580.49,128.41Z"></path></g></mask><linearGradient id="Degradado_sin_nombre_53" x1="257.24" y1="100.51" x2="574.73" y2="100.51" gradientUnits="userSpaceOnUse"><stop offset="0" stop-color="#757575"></stop><stop offset="0.16" stop-color="#6f6f6f"></stop><stop offset="0.39" stop-color="#5d5d5d"></stop><stop offset="0.66" stop-color="#3f3f40"></stop><stop offset="0.95" stop-color="#161617"></stop><stop offset="1" stop-color="#0e0e0f"></stop></linearGradient></defs><path class="cls-2" d="M312.43,222.93h-2.11V183.5h2.11Z" transform="translate(-19.43 -24.05)"></path><path class="cls-3" d="M336.33,222.93h-2.11V204.24l-1.36-3.46L330.09,199h-2.74l-2.83,1.79-4.21,3.51v18.59H318.2V196.37h2.11v6.77l3.84-4.9,3-1.87h4.52l3.13,1.92,1.5,5.8Z" transform="translate(-19.43 -24.05)"></path><path class="cls-4" d="M376.27,222.93h-2.11V204.24l-1.39-3.46L370,199h-2.74l-2.85,1.79-4.2,3.51v18.59h-2.11V204.24l-1.37-3.46L354,199h-2.74l-2.83,1.79-4.21,3.51v18.59H342.1V196.37h2.11v6.77l3.84-4.9,3-1.87h4.54l3.13,1.92,1.28,5.05,4-5.1,3.05-1.87h4.54l3.11,1.92,1.5,5.8Z" transform="translate(-19.43 -24.05)"></path><path class="cls-5" d="M400.19,211.55l-1.5,5.66-3,3.82-3,1.9h-4.53l-3.05-1.9-3-3.82-1.51-5.66v-3.8l1.51-5.66,3-3.85,3.05-1.87h4.53l3,1.87,3,3.85,1.5,5.66Zm-2.13-.13v-3.56l-1.41-5.36-1.38-1.67L392.49,199h-4.21l-2.79,1.79-1.38,1.67-1.42,5.36v3.56l1.42,5.36,1.38,1.69,2.79,1.79h4.21l2.78-1.79,1.38-1.69Z" transform="translate(-19.43 -24.05)"></path><path class="cls-6" d="M424.09,211.55l-1.48,5.66-3,3.82-3,1.9H412l-3-1.9L406.61,218v5h-2.12V183.5h2.12v17.79l2.38-3,3-1.87h4.55l3,1.87,3,3.85,1.48,5.66Zm-2.11-.13v-3.56l-1.43-5.36-1.36-1.67-2.8-1.79H412.2l-5.59,3.51v14.18l5.59,3.53h4.19l2.8-1.79,1.36-1.69Z" transform="translate(-19.43 -24.05)"></path><path class="cls-7" d="M432,187.75l-1.66,2.11H428.6l-1.67-2.11V185.6l1.67-2.1h1.71l1.66,2.1Zm-1.46,35.18h-2.12V196.37h2.12Z" transform="translate(-19.43 -24.05)"></path><path class="cls-8" d="M438.39,222.93h-2.12V183.5h2.12Z" transform="translate(-19.43 -24.05)"></path><path class="cls-9" d="M447.73,187.75l-1.66,2.11h-1.71l-1.67-2.11V185.6l1.67-2.1h1.71l1.66,2.1Zm-1.46,35.18h-2.11V196.37h2.11Z" transform="translate(-19.43 -24.05)"></path><path class="cls-10" d="M470.17,222.93h-2.12v-5L465.68,221l-3,1.9h-4.54l-3.05-1.9-3-3.82-1.51-5.66v-3.8l1.51-5.66,3-3.85,3.05-1.87h4.54l3,1.87,2.37,3v-4.92h2.12Zm-2.12-6.2V202.55L462.48,199h-4.2l-2.79,1.79-1.38,1.67-1.42,5.36v3.56l1.42,5.36,1.38,1.69,2.79,1.79h4.2Z" transform="translate(-19.43 -24.05)"></path><path class="cls-11" d="M489.72,199h-4.64l-2.78,1.79-2.66,3.56-1.59,3.52v15h-2.11V196.37h2.11v8.87l.83-3.15,3-3.85,3-1.87h4.8Z" transform="translate(-19.43 -24.05)"></path><path class="cls-12" d="M493.23,187.75l-1.67,2.11h-1.71l-1.66-2.11V185.6l1.66-2.1h1.71l1.67,2.1Zm-1.47,35.18h-2.11V196.37h2.11Z" transform="translate(-19.43 -24.05)"></path><path class="cls-13" d="M515.66,222.93h-2.11v-5L511.17,221l-3,1.9h-4.53l-3.05-1.9-3-3.82-1.5-5.66v-3.8l1.5-5.66,3-3.85,3.05-1.87h4.53l3,1.87,2.38,3v-4.92h2.11Zm-2.11-6.2V202.55L508,199h-4.21L501,200.83l-1.39,1.67-1.42,5.36v3.56l1.42,5.36,1.39,1.69,2.78,1.79H508Z" transform="translate(-19.43 -24.05)"></path><polygon class="cls-14" points="145.83 23.91 133.29 14.09 133.29 215.38 145.83 205.02 145.83 23.91"></polygon><rect class="cls-15" x="150.74" y="1" width="29.46" height="201.29"></rect><rect class="cls-16" x="66.19" y="14.09" width="68.19" height="201.29"></rect><rect class="cls-17" x="152.11" y="31" width="21.55" height="171.29"></rect><rect class="cls-18" x="66.19" y="130.83" width="20.18" height="26.87"></rect><rect class="cls-19" x="170.93" y="72.46" width="57.28" height="138.56"></rect><rect class="cls-18" x="66.19" y="97.06" width="20.18" height="23.46"></rect><rect class="cls-18" x="66.19" y="59.87" width="20.18" height="23.46"></rect><rect class="cls-20" x="1" y="56.64" width="74.46" height="22.37"></rect><rect class="cls-18" x="172.02" y="97.06" width="54.55" height="26.68"></rect><rect class="cls-18" x="172.02" y="144.26" width="54.55" height="23.66"></rect><rect class="cls-18" x="172.02" y="73.55" width="27.29" height="9.77"></rect><rect class="cls-21" x="106.56" y="130.83" width="465.59" height="24.28"></rect><rect class="cls-22" x="106.56" y="95.1" width="124.38" height="22.64"></rect><rect class="cls-21" x="106.56" y="56.64" width="78.55" height="22.37"></rect><rect class="cls-23" x="1" y="130.83" width="74.46" height="24.28"></rect><rect class="cls-24" x="1" y="95.1" width="74.46" height="22.64"></rect><g class="cls-25"><rect class="cls-26" x="257.24" y="50.6" width="317.49" height="99.83"></rect></g></svg>